<svg width="56" height="56" viewBox="0 0 56 56" fill="none" xmlns="http://www.w3.org/2000/svg">
<rect width="56" height="56" rx="10" fill="white"/>
<path d="M35.7673 21.1141C35.7539 20.8847 35.6568 20.6683 35.4943 20.5058C35.3319 20.3433 35.1154 20.2462 34.8861 20.2328C31.7923 20.0508 29.0587 20.4156 26.7611 21.3164C24.5626 22.1781 22.8681 23.5141 21.8587 25.1797C20.4821 27.4539 20.479 30.2148 21.8235 32.8508L20.4618 34.2125C20.3746 34.2997 20.3054 34.4032 20.2583 34.5172C20.2111 34.6311 20.1868 34.7532 20.1868 34.8766C20.1868 34.9999 20.2111 35.122 20.2583 35.2359C20.3054 35.3499 20.3746 35.4534 20.4618 35.5406C20.638 35.7167 20.8768 35.8157 21.1259 35.8157C21.2492 35.8157 21.3713 35.7914 21.4853 35.7442C21.5992 35.697 21.7028 35.6278 21.79 35.5406L23.1517 34.1789C24.4595 34.8461 25.7986 35.1828 27.0931 35.1828C28.4083 35.1869 29.6991 34.8273 30.8228 34.1437C32.4884 33.1344 33.8243 31.4391 34.6861 29.2414C35.5845 26.9422 35.9493 24.2078 35.7673 21.1141ZM29.8486 32.5375C28.279 33.4883 26.4376 33.5602 24.5579 32.7656L31.1626 26.1609C31.2498 26.0737 31.319 25.9702 31.3662 25.8563C31.4134 25.7423 31.4377 25.6202 31.4377 25.4969C31.4377 25.3735 31.4134 25.2514 31.3662 25.1375C31.319 25.0235 31.2498 24.92 31.1626 24.8328C31.0754 24.7456 30.9719 24.6764 30.8579 24.6292C30.744 24.582 30.6219 24.5577 30.4986 24.5577C30.3752 24.5577 30.2531 24.582 30.1392 24.6292C30.0252 24.6764 29.9217 24.7456 29.8345 24.8328L23.2345 31.4422C22.4423 29.5672 22.5142 27.7211 23.4689 26.1516C25.1025 23.4539 28.9798 21.9547 33.9376 22.0695C34.0454 27.0258 32.5462 30.9039 29.8486 32.5375Z" fill="black"/>
</svg>
